<svg width="20" height="21" viewBox="0 0 20 21" xmlns="http://www.w3.org/2000/svg">
<path d="M1.79165 20.0833C1.53748 20.0833 1.29372 19.9824 1.114 19.8026C0.93428 19.6229 0.833313 19.3792 0.833313 19.125V1.87499C0.833313 1.62082 0.93428 1.37707 1.114 1.19735C1.29372 1.01762 1.53748 0.916656 1.79165 0.916656H15.2083C15.4625 0.916656 15.7062 1.01762 15.886 1.19735C16.0657 1.37707 16.1666 1.62082 16.1666 1.87499V4.74999H14.25V2.83332H2.74998V18.1667H14.25V16.25H16.1666V19.125C16.1666 19.3792 16.0657 19.6229 15.886 19.8026C15.7062 19.9824 15.4625 20.0833 15.2083 20.0833H1.79165ZM14.25 14.3333V11.4583H7.54165V9.54166H14.25V6.66666L19.0416 10.5L14.25 14.3333Z"/>
</svg>
