<svg width="18" height="19" xmlns="http://www.w3.org/2000/svg"><path d="M9.5 2.532c2.27 0 2.539.009 3.435.05 2.304.105 3.38 1.198 3.485 3.484.04.896.048 1.165.048 3.435s-.008 2.538-.048 3.434c-.106 2.285-1.179 3.38-3.485 3.485-.896.04-1.164.05-3.435.05-2.27 0-2.539-.01-3.435-.05-2.309-.106-3.38-1.204-3.484-3.485-.041-.896-.05-1.165-.05-3.435s.01-2.538.05-3.435c.105-2.286 1.179-3.38 3.484-3.484.897-.04 1.165-.049 3.435-.049zM9.5 1c-2.309 0-2.598.01-3.504.051-3.087.142-4.803 1.854-4.944 4.944C1.01 6.903 1 7.192 1 9.5c0 2.309.01 2.598.05 3.505.143 3.087 1.855 4.802 4.945 4.944.907.041 1.196.051 3.505.051 2.308 0 2.598-.01 3.505-.051 3.084-.142 4.804-1.854 4.943-4.944.042-.907.052-1.197.052-3.505s-.01-2.597-.051-3.504c-.139-3.084-1.854-4.803-4.944-4.944C12.098 1.01 11.808 1 9.5 1zm0 4.135a4.365 4.365 0 100 8.73 4.365 4.365 0 000-8.73zm0 7.198a2.833 2.833 0 110-5.666 2.833 2.833 0 010 5.666zm4.537-8.39a1.02 1.02 0 100 2.041 1.02 1.02 0 000-2.04z"/></svg>