<svg width="22" height="23" xmlns="http://www.w3.org/2000/svg"><path fill-rule="evenodd" clip-rule="evenodd" d="M18.59 12.126a2.61 2.61 0 00-2.013-1.89 2.62 2.62 0 00.368-2.057 2.144 2.144 0 00-3.018-3.009 2.618 2.618 0 00-2.08.396 2.615 2.615 0 00-1.89-2.036.832.832 0 01.126-1.015l.84-.837a.82.82 0 01.587-.244c.174 0 .343.053.483.154l.773.556a5.2 5.2 0 01.912-.384l.163-.955a.83.83 0 01.82-.694h1.183a.83.83 0 01.82.694l.157.932c.329.099.646.23.95.39l.78-.555a.824.824 0 011.067.09l.837.836c.29.287.326.739.09 1.07l-.556.778c.154.292.28.599.38.916l.943.16a.82.82 0 01.688.82v1.183a.83.83 0 01-.694.82l-.943.157c-.096.314-.225.62-.38.915l.556.781a.831.831 0 01-.09 1.07l-.836.837a.824.824 0 01-1.024.121z"/><path fill-rule="evenodd" clip-rule="evenodd" d="M16.235 11.76l-1.2-.204a6.783 6.783 0 00-.483-1.166l.707-.99c.3-.422.254-.997-.114-1.362L14.08 6.973a1.05 1.05 0 00-1.358-.114l-.994.707a6.713 6.713 0 00-1.208-.496l-.2-1.187A1.056 1.056 0 009.275 5H7.77c-.518 0-.958.372-1.044.883L6.52 7.098c-.4.125-.79.29-1.162.49l-.983-.708a1.05 1.05 0 00-.615-.196c-.282 0-.55.11-.747.31L1.945 8.06c-.365.364-.415.94-.115 1.362l.715 1.004a6.623 6.623 0 00-.475 1.169l-1.187.2A1.056 1.056 0 000 12.84v1.505c0 .518.372.958.883 1.043l1.215.208c.125.4.29.79.49 1.161l-.704.98c-.3.422-.254.997.114 1.362l1.065 1.065a1.05 1.05 0 001.359.114l1.004-.715c.361.19.74.344 1.13.465l.2 1.201c.086.511.525.883 1.043.883h1.509c.518 0 .958-.372 1.044-.883l.203-1.2a6.78 6.78 0 001.166-.483l.99.707c.179.13.393.197.615.197.282 0 .546-.11.747-.311l1.065-1.065c.364-.365.415-.94.114-1.362l-.708-.994a6.66 6.66 0 00.483-1.165l1.201-.2c.511-.086.883-.526.883-1.044v-1.505a1.043 1.043 0 00-.876-1.044zm-7.678 6.08a4.29 4.29 0 01-4.287-4.287 4.29 4.29 0 014.287-4.288 4.29 4.29 0 014.288 4.288 4.29 4.29 0 01-4.288 4.287z"/></svg>