<svg width="21" height="16" xmlns="http://www.w3.org/2000/svg"><path fill-rule="evenodd" clip-rule="evenodd" d="M20.353 1.961a8.27 8.27 0 01-2.347.604 4.037 4.037 0 001.74-2.264 7.596 7.596 0 01-2.575.98A4.256 4.256 0 0014.22 0a4.05 4.05 0 00-2.83 1.18A4.02 4.02 0 0010.205 4c-.012.304.013.608.076.906-1.59-.05-3.15-.44-4.574-1.144A11.07 11.07 0 012.024.825a4.521 4.521 0 00-.534 2.042 3.761 3.761 0 001.822 3.32A4.198 4.198 0 011.42 5.66v.075c-.005.93.318 1.834.913 2.551A3.987 3.987 0 004.675 9.66a4.49 4.49 0 01-1.06.151 2.584 2.584 0 01-.758-.075 3.988 3.988 0 001.439 2.008 4.01 4.01 0 002.348.78 8.18 8.18 0 01-4.998 1.74 4.33 4.33 0 01-.985-.076A11.717 11.717 0 006.87 16a11.448 11.448 0 008.143-3.304 11.34 11.34 0 003.37-8.092v-.529a8.735 8.735 0 001.97-2.113z"/></svg>